<?xml version="1.0" standalone="no"?>
<!DOCTYPE svg PUBLIC "-//W3C//DTD SVG 20010904//EN"
 "http://www.w3.org/TR/2001/REC-SVG-20010904/DTD/svg10.dtd">
<svg version="1.0" xmlns="http://www.w3.org/2000/svg"
 width="512.000000pt" height="512.000000pt" viewBox="0 0 512.000000 512.000000"
 preserveAspectRatio="xMidYMid meet">

<g transform="translate(0.000000,512.000000) scale(0.100000,-0.100000)"
fill="#000000" stroke="none">
<path d="M1852 5099 c-126 -63 -131 -248 -8 -314 l36 -20 0 -77 0 -78 -38 0
c-21 0 -43 -5 -50 -12 -8 -8 -12 -61 -12 -174 l0 -163 -60 -263 -60 -263 0
-237 0 -238 -65 0 -65 0 0 134 c0 127 -3 145 -57 377 -55 237 -57 250 -62 426
-3 100 -9 184 -13 188 -3 4 -25 9 -47 12 l-41 6 0 73 c0 71 1 74 29 88 97 51
128 168 68 256 -36 54 -70 73 -136 78 -49 4 -67 0 -101 -19 -129 -73 -115
-272 23 -322 14 -5 17 -19 17 -80 l0 -74 -42 -6 c-65 -9 -68 -18 -68 -208 l0
-166 -58 -244 -57 -244 -3 -1076 c-1 -687 1 -1086 7 -1103 13 -33 56 -45 79
-22 15 15 18 53 22 293 l5 277 182 37 c100 21 191 40 202 44 52 16 51 3 51
476 l0 439 65 0 65 0 0 -413 c0 -504 -15 -463 153 -428 62 13 151 31 200 40
l87 18 0 -41 c0 -74 53 -112 93 -68 15 17 17 77 17 650 l0 632 90 0 c50 0 90
-2 90 -5 0 -2 -11 -21 -25 -41 -41 -61 -34 -195 14 -249 16 -18 17 -35 10
-175 -36 -714 -129 -1170 -351 -1727 -33 -84 -64 -153 -67 -153 -10 0 -161
344 -188 427 -24 76 -53 269 -53 351 0 94 -63 158 -148 149 -51 -5 -96 -43
-111 -91 -5 -17 -12 -76 -15 -131 -12 -187 -41 -288 -153 -535 -78 -172 -83
-199 -42 -221 38 -20 65 15 133 166 34 77 71 161 81 187 l18 48 101 0 101 0
47 -107 c26 -60 76 -175 113 -257 l65 -149 0 -372 c0 -348 1 -373 18 -388 23
-21 46 -22 66 -1 14 13 16 63 16 388 l0 373 61 144 c253 597 376 1144 404
1794 3 77 8 159 11 183 l5 42 59 0 59 0 5 -52 c3 -29 10 -143 16 -253 32 -596
159 -1150 384 -1679 l76 -179 0 -373 c0 -325 2 -375 16 -388 21 -21 47 -20 67
2 15 17 17 58 17 389 l0 370 65 149 c37 82 87 197 113 256 l47 108 101 0 101
0 18 -48 c46 -120 154 -345 170 -354 24 -14 63 5 70 35 4 16 -16 72 -68 187
-112 247 -141 348 -153 535 -3 55 -10 114 -15 131 -15 48 -60 86 -111 91 -85
9 -148 -55 -148 -149 0 -82 -29 -275 -53 -351 -27 -84 -178 -427 -188 -427
-10 0 -140 334 -188 482 -86 266 -162 628 -196 933 -9 77 -22 248 -29 380
l-13 240 26 28 c24 26 26 35 26 127 0 88 -2 101 -22 122 -13 14 -23 27 -23 31
0 4 43 7 95 7 l95 0 0 -638 c0 -483 3 -641 12 -650 19 -19 66 -15 78 7 5 11
10 41 10 66 0 40 3 46 18 41 9 -3 55 -13 102 -22 47 -8 121 -24 165 -35 97
-23 119 -24 139 -3 14 13 16 66 16 430 l0 414 65 0 65 0 0 -439 c0 -386 2
-441 16 -455 18 -19 18 -19 243 -66 l176 -36 5 -275 c5 -295 8 -309 56 -309
56 0 54 -51 54 1115 l0 1070 -60 264 -60 264 0 167 c0 187 0 188 -70 197 l-40
6 0 73 0 73 36 17 c20 10 49 35 65 57 58 80 30 205 -56 254 -104 59 -235 5
-266 -109 -20 -76 12 -150 84 -197 l37 -24 0 -74 0 -73 -28 0 c-15 0 -38 -7
-50 -16 -21 -15 -22 -21 -22 -176 0 -159 0 -161 -60 -425 -56 -250 -60 -274
-60 -395 l0 -128 -65 0 -65 0 0 240 0 241 -55 244 c-54 241 -55 245 -55 407 0
195 -6 212 -68 216 l-42 3 0 78 c0 78 0 79 30 91 38 16 75 59 90 106 27 80
-15 175 -92 213 -138 67 -283 -49 -254 -204 8 -42 54 -98 96 -115 30 -12 30
-13 30 -91 l0 -79 -38 0 c-68 0 -72 -13 -72 -204 0 -166 0 -167 -55 -409 -31
-133 -59 -272 -62 -309 l-6 -68 -104 0 c-123 0 -131 7 -90 81 99 176 -102 356
-264 236 -69 -50 -89 -172 -40 -238 16 -21 21 -38 17 -55 -6 -23 -9 -24 -111
-24 l-105 0 0 49 c0 27 -27 168 -60 314 l-60 266 0 165 c0 187 -3 196 -71 196
l-39 0 0 75 c0 71 1 75 28 89 31 16 74 60 91 93 15 30 14 119 -3 151 -30 57
-103 102 -168 102 -18 0 -52 -10 -76 -21z m117 -94 c48 -24 56 -81 16 -120
-49 -50 -125 -17 -125 55 0 36 17 61 50 73 24 9 29 8 59 -8z m1273 -12 c25
-22 30 -60 14 -92 -25 -48 -82 -56 -121 -16 -71 71 31 174 107 108z m-1947
-199 c23 -9 46 -60 39 -88 -15 -62 -89 -80 -131 -32 -30 35 -29 71 2 101 24
24 57 31 90 19z m2620 -19 c42 -42 30 -104 -25 -124 -54 -18 -100 12 -100 67
0 73 75 108 125 57z m-1927 -372 l-3 -108 -52 -3 -53 -3 0 110 0 111 55 0 56
0 -3 -107z m1252 -3 l0 -110 -50 0 -50 0 0 110 0 110 50 0 50 0 0 -110z
m-1930 -215 l0 -105 -55 0 -55 0 0 105 0 105 55 0 55 0 0 -105z m2610 0 l0
-105 -55 0 -55 0 0 105 0 105 55 0 55 0 0 -105z m-1915 -27 c6 -28 64 -285 80
-355 l5 -23 -155 0 c-86 0 -155 4 -155 9 0 10 77 355 86 384 4 14 17 17 69 17
l63 0 7 -32z m1294 -170 c24 -109 42 -200 39 -203 -3 -3 -73 -4 -155 -3 l-150
3 46 203 45 203 65 -3 65 -3 45 -197z m-1932 -208 c23 -102 43 -193 43 -202 0
-16 -14 -18 -156 -18 -143 0 -155 1 -150 18 2 9 24 102 47 205 l43 188 65 -3
66 -3 42 -185z m2563 186 c0 -2 20 -92 45 -200 25 -109 45 -199 45 -202 0 -2
-70 -4 -155 -4 -106 0 -155 3 -155 11 0 11 78 363 85 387 3 8 26 12 70 12 36
0 65 -2 65 -4z m-1830 -689 l0 -393 -157 -32 c-87 -18 -164 -33 -170 -32 -10
0 -13 92 -13 425 l0 425 170 0 170 0 0 -393z m1260 -35 l0 -428 -170 35 -170
36 0 392 0 393 170 0 170 0 0 -428z m-770 361 c0 -5 7 -66 15 -138 8 -71 15
-133 15 -137 0 -5 -27 -8 -60 -8 -33 0 -60 2 -60 5 0 11 20 200 26 243 5 39 8
42 35 42 16 0 29 -3 29 -7z m-184 -129 c-3 -26 -6 -55 -6 -65 0 -17 -9 -19
-95 -19 l-95 0 0 65 0 65 101 0 102 0 -7 -46z m504 -19 l0 -65 -94 0 -93 0 -7
46 c-12 90 -18 84 94 84 l100 0 0 -65z m-1480 -365 c0 -203 -3 -370 -6 -370
-10 0 -297 -60 -316 -66 -17 -5 -18 19 -18 400 l0 406 170 0 170 0 0 -370z
m2600 -34 l0 -404 -161 34 c-88 19 -165 34 -170 34 -5 0 -9 155 -9 370 l0 370
170 0 170 0 0 -404z m-1362 142 c7 -7 12 -37 12 -68 0 -31 -5 -61 -12 -68 -8
-8 -47 -12 -110 -12 -111 0 -118 5 -118 80 0 75 7 80 118 80 63 0 102 -4 110
-12z m-1013 -118 l0 -75 -60 0 -60 0 -3 64 c-4 90 -3 93 65 89 l58 -3 0 -75z
m1935 0 l0 -81 -62 3 -63 3 -3 64 c-4 89 -3 91 68 91 l60 0 0 -80z m-1490
-360 c0 -27 -3 -50 -6 -50 -10 0 -297 -60 -317 -66 -16 -5 -18 0 -15 48 l3 53
150 32 c200 42 185 43 185 -17z m1103 18 l157 -33 0 -51 0 -52 -162 34 c-89
19 -166 34 -170 34 -5 0 -8 23 -8 50 0 33 4 50 13 50 6 0 83 -15 170 -32z
m-1773 -178 c0 -27 -2 -50 -4 -50 -2 0 -77 -16 -167 -35 -90 -19 -165 -35
-167 -35 -2 0 -2 23 0 52 l3 52 150 32 c201 42 185 43 185 -16z m2440 16 l155
-32 3 -53 c3 -49 2 -51 -20 -46 -39 9 -308 65 -313 65 -3 0 -5 23 -5 50 0 34
4 50 13 50 6 -1 82 -16 167 -34z m-1770 -180 c0 -91 -3 -167 -7 -169 -5 -3
-29 -8 -55 -12 l-48 -7 0 166 0 166 28 6 c15 3 32 7 37 9 45 15 45 14 45 -159z
m1013 148 c15 -5 17 -22 17 -171 l0 -165 -47 7 c-27 4 -51 9 -55 12 -5 2 -8
79 -8 170 l0 165 38 -6 c20 -4 45 -9 55 -12z m-1233 -193 l0 -169 -50 -11
c-28 -6 -55 -11 -61 -11 -6 0 -8 63 -7 167 l3 168 55 11 c30 7 56 12 58 13 1
0 2 -75 2 -168z m1478 -24 c1 -104 -1 -167 -7 -167 -6 0 -33 5 -61 11 l-50 11
0 167 0 168 58 -11 57 -12 3 -167z m-1928 -85 l0 -159 -51 -11 c-28 -7 -55
-12 -60 -12 -5 0 -9 68 -9 159 l0 159 48 10 c26 5 53 10 60 11 9 1 12 -37 12
-157z m2343 143 l37 -7 0 -159 c0 -88 -2 -159 -5 -159 -2 0 -27 5 -55 11 l-50
11 0 52 c0 29 -3 102 -7 161 l-6 108 24 -6 c13 -3 41 -9 62 -12z m-2573 -194
l0 -158 -39 -7 c-22 -3 -46 -9 -55 -12 -14 -5 -16 12 -16 155 l0 161 28 6 c15
3 32 7 37 9 45 15 45 13 45 -154z m2813 143 c15 -5 17 -21 17 -163 l0 -158
-55 10 -55 10 0 160 0 159 38 -6 c20 -4 45 -9 55 -12z m-2389 -626 c8 -86 27
-241 33 -275 l5 -33 -66 0 c-36 0 -66 2 -66 5 0 3 6 47 14 98 8 50 18 129 21
175 7 77 8 82 30 82 21 0 24 -6 29 -52z m1931 -35 c3 -49 13 -127 21 -176 8
-48 14 -89 14 -92 0 -3 -30 -5 -66 -5 l-67 0 7 38 c6 37 21 159 31 265 6 51 9
57 30 57 22 0 24 -4 30 -87z"/>
<path d="M1896 3554 c-25 -25 -21 -99 6 -118 30 -21 44 -20 68 4 24 24 26 77
4 108 -18 26 -56 29 -78 6z"/>
<path d="M1897 3322 c-23 -26 -22 -94 1 -115 26 -23 58 -21 76 5 48 68 -24
169 -77 110z"/>
<path d="M1902 3094 c-16 -11 -22 -25 -22 -55 0 -22 5 -49 10 -60 14 -25 61
-25 83 -1 24 26 22 87 -3 112 -24 24 -38 25 -68 4z"/>
<path d="M3146 3548 c-46 -65 19 -163 74 -113 23 21 28 103 8 123 -20 20 -65
14 -82 -10z"/>
<path d="M3156 3327 c-9 -7 -20 -31 -23 -54 -4 -33 -1 -45 16 -62 44 -44 91
-16 91 54 0 65 -40 94 -84 62z"/>
<path d="M3155 3085 c-45 -44 -23 -125 34 -125 39 0 51 17 51 71 0 38 -5 51
-22 63 -30 21 -35 20 -63 -9z"/>
<path d="M1216 3358 c-18 -26 -20 -56 -7 -91 13 -33 46 -43 76 -23 21 14 25
25 25 64 0 27 -5 53 -12 60 -20 20 -65 14 -82 -10z"/>
<path d="M1220 3130 c-41 -41 -14 -130 39 -130 32 0 51 28 51 75 0 69 -47 98
-90 55z"/>
<path d="M1227 2907 c-10 -6 -20 -29 -24 -49 -7 -50 16 -88 55 -88 40 0 52 17
52 71 0 38 -5 51 -22 63 -27 19 -39 20 -61 3z"/>
<path d="M3826 3364 c-25 -25 -21 -99 6 -118 30 -21 44 -20 68 4 26 26 27 90
2 113 -23 21 -56 22 -76 1z"/>
<path d="M3827 3132 c-23 -26 -22 -94 1 -115 41 -37 92 -5 92 58 0 64 -56 98
-93 57z"/>
<path d="M3832 2904 c-17 -12 -22 -25 -22 -59 0 -49 19 -75 54 -75 53 0 77 89
36 130 -24 24 -38 25 -68 4z"/>
<path d="M2522 1868 c-5 -7 -30 -96 -55 -198 -25 -102 -61 -235 -81 -296 -38
-118 -43 -153 -24 -172 17 -17 379 -17 396 0 19 19 14 54 -24 172 -20 61 -56
194 -81 296 -25 102 -50 191 -55 198 -6 6 -23 12 -38 12 -15 0 -32 -6 -38 -12z
m58 -348 c7 -27 25 -90 40 -140 l28 -90 -88 0 -88 0 28 90 c15 50 33 113 40
140 7 28 16 50 20 50 4 0 13 -22 20 -50z"/>
<path d="M1000 1225 c-17 -21 -23 -85 -11 -117 15 -39 58 -48 83 -18 23 29 25
112 2 134 -19 20 -58 21 -74 1z"/>
<path d="M4044 1195 c-18 -28 -14 -85 7 -111 32 -38 89 3 89 65 0 68 -62 98
-96 46z"/>
<path d="M2500 1026 c-113 -83 -222 -230 -276 -371 -42 -112 -53 -200 -54
-421 0 -187 1 -202 20 -219 26 -23 68 -13 80 20 9 23 15 25 69 25 l59 0 5 213
c5 226 9 251 63 362 47 96 85 123 128 92 26 -19 23 -57 -8 -103 -59 -90 -70
-141 -74 -362 l-4 -202 166 0 166 0 10 -25 c12 -33 54 -43 80 -20 19 17 20 32
20 214 0 108 -5 225 -11 261 -25 159 -104 321 -211 435 -65 70 -147 135 -169
135 -8 0 -34 -15 -59 -34z"/>
<path d="M933 981 c-70 -18 -131 -83 -140 -151 -4 -28 -14 -47 -32 -61 -96
-75 -94 -238 4 -302 32 -20 34 -25 28 -62 -4 -28 -15 -47 -35 -63 -66 -54 -88
-164 -48 -242 40 -78 142 -117 228 -87 38 13 48 13 78 1 67 -28 151 -7 206 52
70 76 63 194 -16 268 -23 21 -36 43 -40 71 -6 37 -4 41 28 62 41 27 76 95 76
152 0 51 -28 109 -70 144 -18 15 -30 35 -30 49 0 41 -43 111 -85 140 -44 29
-103 41 -152 29z m103 -126 c20 -20 24 -33 23 -74 -2 -51 12 -81 38 -81 8 0
25 -11 38 -25 33 -32 34 -84 3 -112 -37 -32 -53 -33 -108 -6 l-52 26 -46 -24
c-53 -26 -74 -27 -107 -5 -50 33 -39 112 20 140 46 22 54 35 52 90 -2 41 2 51
26 72 37 31 81 31 113 -1z m0 -430 c19 -19 25 -35 24 -63 -3 -64 -1 -72 28
-84 50 -22 72 -49 72 -89 0 -68 -81 -103 -137 -59 -14 11 -35 20 -45 20 -11 0
-31 -9 -45 -20 -14 -11 -41 -20 -59 -20 -88 0 -112 121 -31 155 47 20 57 35
55 88 -2 37 3 51 22 72 32 34 82 34 116 0z"/>
<path d="M4115 985 c-5 -2 -22 -6 -37 -9 -58 -13 -127 -102 -128 -164 0 -13
-14 -35 -34 -52 -19 -17 -41 -45 -50 -64 -35 -75 -6 -187 60 -229 32 -21 34
-25 28 -62 -4 -28 -18 -52 -45 -79 -46 -46 -63 -92 -57 -157 7 -64 41 -113
102 -144 56 -28 101 -31 150 -11 30 12 40 12 78 -1 123 -43 248 46 248 176 0
61 -19 105 -65 146 -23 21 -34 42 -38 70 -5 37 -3 42 26 60 100 63 103 228 6
304 -18 14 -28 33 -32 62 -6 46 -48 105 -93 131 -29 16 -100 30 -119 23z m82
-129 c24 -21 28 -31 26 -72 -2 -55 6 -68 52 -90 59 -28 70 -107 20 -140 -33
-22 -54 -21 -107 5 l-46 24 -52 -26 c-28 -14 -59 -23 -68 -20 -35 12 -62 46
-62 78 0 39 18 64 61 84 32 15 34 19 39 79 4 51 10 68 29 83 32 26 74 24 108
-5z m3 -431 c20 -21 24 -35 22 -74 -2 -51 11 -72 56 -86 29 -8 55 -60 48 -91
-16 -61 -88 -84 -139 -44 -14 11 -34 20 -45 20 -10 0 -31 -9 -45 -20 -57 -45
-137 -10 -137 60 0 39 22 67 73 88 25 11 27 16 27 67 0 46 4 60 25 80 33 34
83 34 115 0z"/>
<path d="M1522 565 c-60 -54 -105 -121 -133 -201 -17 -48 -21 -84 -23 -197 -1
-126 1 -140 18 -153 31 -22 55 -17 74 16 l17 30 123 0 c120 0 123 0 132 -24
17 -45 74 -44 91 1 14 36 11 199 -5 274 -20 94 -59 164 -131 236 -78 77 -95
79 -163 18z"/>
<path d="M3442 555 c-70 -64 -117 -148 -137 -242 -17 -77 -20 -239 -6 -276 18
-46 74 -46 92 -1 8 23 11 24 131 24 l123 0 17 -30 c19 -33 43 -38 74 -16 17
13 19 27 18 148 -1 151 -18 221 -74 308 -40 62 -127 140 -157 140 -13 0 -46
-23 -81 -55z"/>
</g>
</svg>
